<svg xmlns="http://www.w3.org/2000/svg" xmlns:xlink="http://www.w3.org/1999/xlink" version="1.1" width="256" height="256" viewBox="0 0 256 256" xml:space="preserve">
<desc>Created with Fabric.js 1.7.22</desc>
<defs>
</defs>
<g transform="translate(128 128) scale(0.72 0.72)" style="">
	<g style="stroke: none; stroke-width: 0; stroke-dasharray: none; stroke-linecap: butt; stroke-linejoin: miter; stroke-miterlimit: 10; fill: none; fill-rule: nonzero; opacity: 1;" transform="translate(-175.05 -175.05000000000004) scale(3.89 3.89) matrix(-1 0 0 1 90 0) " >
	<path d="M 45 90 c 24.813 0 45 -20.187 45 -45 C 90 20.187 69.813 0 45 0 C 20.187 0 0 20.187 0 45 C 0 69.813 20.187 90 45 90 z M 45 10 c 19.299 0 35 15.701 35 35 S 64.299 80 45 80 S 10 64.299 10 45 S 25.701 10 45 10 z" style="stroke: none; stroke-width: 1; stroke-dasharray: none; stroke-linecap: butt; stroke-linejoin: miter; stroke-miterlimit: 10; fill: rgb(168, 21, 149); fill-rule: nonzero; opacity: 1;" transform=" matrix(1 0 0 1 0 0) " stroke-linecap="round" />
	<path d="M 67.577 62.125 c -5.797 -7.419 -13.694 -9.277 -23.765 -9.294 v 9.294 L 22.423 45 l 21.389 -17.125 v 8.879 C 57.599 36.754 67.577 49.132 67.577 62.125 z" style="stroke: none; stroke-width: 1; stroke-dasharray: none; stroke-linecap: butt; stroke-linejoin: miter; stroke-miterlimit: 10; fill: rgb(168, 21, 149); fill-rule: nonzero; opacity: 1;" transform=" matrix(1 0 0 1 0 0) " stroke-linecap="round" />
</g>
</g>
</svg>