<svg xmlns="http://www.w3.org/2000/svg" xmlns:xlink="http://www.w3.org/1999/xlink" version="1.1" width="256"
	height="256" viewBox="0 0 256 256" xml:space="preserve">
	<desc>Created with Fabric.js 1.7.22</desc>
	<defs>
	</defs>
	<g transform="translate(128 128) scale(0.72 0.72)" style="">
		<g style="stroke: none; stroke-width: 0; stroke-dasharray: none; stroke-linecap: butt; stroke-linejoin: miter; stroke-miterlimit: 10; fill: none; fill-rule: nonzero; opacity: 1;"
			transform="translate(-175.05 -175.05000000000004) scale(3.89 3.89)">
			<path
				d="M 89.984 17.418 c -0.004 0.036 -0.005 0.071 -0.011 0.107 c -0.13 0.979 -0.959 1.738 -1.973 1.738 h -9.704 c -1.104 0 -2 -0.895 -2 -2 s 0.895 -2 2 -2 h 5.319 c -4.317 -4.224 -9.85 -6.945 -15.943 -7.78 c -7.506 -1.029 -14.955 0.929 -20.987 5.508 C 41.72 16.76 38.347 21.86 36.685 27.42 c 8.229 1.111 16.031 5.362 21.437 12.483 c 7.788 10.258 6.538 18.323 3.101 22.112 c -3.527 3.889 -9.518 4.116 -15.262 0.581 c -2.782 -1.712 -5.44 -4.223 -7.9 -7.464 c -5.225 -6.883 -7.457 -15.387 -6.285 -23.949 c 0.002 -0.019 0.005 -0.036 0.007 -0.055 c -5.796 0.11 -11.61 1.988 -16.57 5.754 C 9.182 41.461 5.295 48.115 4.268 55.617 C 3.24 63.119 5.196 70.573 9.775 76.604 c 0 0 0 0 0.001 0.001 c 2.159 2.845 4.451 5.024 6.811 6.476 c 0.94 0.579 1.234 1.81 0.655 2.751 c -0.578 0.94 -1.81 1.235 -2.751 0.655 c -2.783 -1.712 -5.441 -4.223 -7.901 -7.464 c -0.001 -0.001 -0.002 -0.003 -0.003 -0.004 c -5.223 -6.882 -7.453 -15.385 -6.281 -23.944 c 1.172 -8.561 5.608 -16.153 12.49 -21.377 c 5.915 -4.491 12.896 -6.659 19.798 -6.57 c 1.848 -6.889 5.9 -12.939 11.673 -17.321 c 5.685 -4.316 12.477 -6.59 19.492 -6.59 c 1.478 0 2.967 0.101 4.456 0.305 C 74.98 4.447 81.135 7.419 86 12.019 V 7.559 c 0 -1.104 0.895 -2 2 -2 s 2 0.895 2 2 v 9.704 C 90 17.316 89.988 17.366 89.984 17.418 z M 41.246 52.713 c 2.16 2.845 4.451 5.024 6.81 6.476 c 2.085 1.283 4.122 1.925 5.911 1.925 c 1.721 0 3.212 -0.595 4.293 -1.787 c 2.598 -2.864 2.577 -9.233 -3.324 -17.008 c -4.812 -6.339 -11.791 -10.082 -19.128 -10.983 C 34.705 38.646 36.435 46.375 41.246 52.713 z"
				style="stroke: none; stroke-width: 1; stroke-dasharray: none; stroke-linecap: butt; stroke-linejoin: miter; stroke-miterlimit: 10; fill: rgb(255,255,255); fill-rule: nonzero; opacity: 1;"
				transform=" matrix(1 0 0 1 0 0) " stroke-linecap="round" />
		</g>
	</g>
</svg>